<svg viewBox="0 0 2048 2048" xmlns="http://www.w3.org/2000/svg" xmlns:xlink="http://www.w3.org/1999/xlink" width="2048.000000" height="2048.000000" fill="none">
	<defs>
		<linearGradient id="paint_linear_0" x1="1023.65979" x2="1023.65979" y1="714.598694" y2="1480" gradientUnits="userSpaceOnUse">
			<stop stop-color="rgb(18,185,139)" offset="0" stop-opacity="1" />
			<stop stop-color="rgb(0,136,117)" offset="1" stop-opacity="1" />
		</linearGradient>
	</defs>
	<rect id="logo" width="2048.000000" height="2048.000000" x="0.000000" y="0.000000" rx="200" />
	<path id="1" d="M0 0C675.84 0 1351.68 0 2048 0C2048 675.84 2048 1351.68 2048 2048C1372.16 2048 696.32 2048 0 2048C0 1372.16 0 696.32 0 0Z" fill="rgb(253,253,249)" fill-rule="nonzero" />
	<path id="2" d="M811.354 714.869C812.101 714.867 812.847 714.865 813.617 714.862C816.132 714.857 818.647 714.858 821.163 714.86C822.979 714.857 824.795 714.854 826.611 714.851C831.613 714.843 836.614 714.841 841.616 714.84C847.006 714.838 852.396 714.831 857.786 714.824C869.577 714.81 881.369 714.804 893.16 714.8C900.521 714.797 907.881 714.793 915.241 714.788C935.614 714.776 955.987 714.766 976.36 714.762C977.664 714.762 978.969 714.762 980.313 714.762C981.62 714.762 982.927 714.761 984.275 714.761C986.924 714.761 989.574 714.76 992.223 714.76C993.537 714.76 994.852 714.759 996.206 714.759C1017.5 714.755 1038.8 714.738 1060.1 714.714C1081.96 714.691 1103.81 714.678 1125.67 714.677C1137.95 714.676 1150.22 714.67 1162.5 714.652C1172.95 714.637 1183.4 714.632 1193.86 714.64C1199.19 714.644 1204.52 714.643 1209.86 714.629C1214.74 714.616 1219.63 714.617 1224.51 714.63C1226.28 714.632 1228.04 714.628 1229.81 714.62C1242.88 714.559 1242.88 714.559 1247.99 715.621C1251.37 716.696 1254.11 718.076 1257.07 720.043C1258.3 721.105 1258.3 721.105 1259.56 722.188C1260.83 723.261 1260.83 723.261 1262.13 724.355C1262.75 724.898 1263.36 725.441 1264 726C1264.33 727.32 1264.66 728.64 1265 730C1265.66 730 1266.32 730 1267 730C1268.9 733.222 1270.07 736.375 1271 740C1271.62 746.642 1271.28 753.346 1271 760C1270.97 760.752 1270.95 761.504 1270.92 762.279C1270.65 768.927 1270.19 774.701 1268 781C1269.9 780.997 1269.9 780.997 1271.83 780.993C1283.75 780.973 1295.67 780.958 1307.59 780.948C1313.71 780.943 1319.84 780.936 1325.97 780.925C1331.88 780.914 1337.8 780.908 1343.71 780.905C1345.96 780.903 1348.22 780.9 1350.48 780.894C1353.64 780.887 1356.8 780.886 1359.96 780.886C1360.89 780.883 1361.82 780.879 1362.78 780.876C1367.3 780.883 1371.55 781.075 1376 782C1376 782.66 1376 783.32 1376 784C1376.99 784.083 1377.98 784.165 1379 784.25C1381.29 784.564 1383.11 785.046 1385.25 785.957C1387.19 786.936 1389.1 787.941 1391 789C1391 789.66 1391 790.32 1391 791C1393.48 791.99 1393.48 791.99 1396 793C1400.89 798.307 1405.42 803.712 1409 810C1410.94 814.247 1412.52 818.574 1414 823C1414.79 836.215 1413.53 848.754 1411.34 861.77C1409.5 872.794 1408 883.87 1406.44 894.938C1405.85 899.072 1405.27 903.206 1404.68 907.34C1404.47 908.833 1404.47 908.833 1404.26 910.356C1403.36 916.592 1402.41 922.813 1401.4 929.031C1400.29 935.917 1399.39 942.796 1398.62 949.729C1396.27 970.555 1392.69 991.401 1385 1011C1384.04 1013.22 1383.05 1015.43 1382.06 1017.63C1381.02 1019.96 1380.02 1022.31 1379.03 1024.66C1374.06 1036.26 1368.21 1046.66 1361 1057C1360.31 1058.02 1359.62 1059.03 1358.91 1060.08C1352.53 1069.22 1344.87 1077.13 1337 1085C1335.88 1086.21 1335.88 1086.21 1334.74 1087.44C1323.1 1099.73 1308.6 1109.38 1294.01 1117.88C1280.44 1125.46 1265.93 1130.79 1251 1135C1249.98 1135.32 1248.97 1135.64 1247.92 1135.96C1240.99 1138.09 1234.16 1139.62 1227 1140.75C1226.2 1140.88 1225.4 1141.01 1224.57 1141.14C1220.34 1141.77 1216.29 1142.14 1212 1142C1211.74 1142.69 1211.49 1143.38 1211.23 1144.09C1206.89 1154.37 1200.28 1163.82 1194 1173C1192.66 1175 1191.33 1177 1190 1179C1189.34 1179 1188.68 1179 1188 1179C1187.79 1179.53 1187.58 1180.06 1187.36 1180.61C1185.47 1183.94 1182.88 1186.55 1180.25 1189.31C1175.45 1194.4 1175.45 1194.4 1170.94 1199.75C1166.93 1204.51 1161.86 1208.16 1157 1212C1156.19 1212.66 1155.39 1213.32 1154.56 1214C1139.11 1226.63 1122.45 1237.13 1104.19 1245.25C1103.47 1245.5 1102.74 1245.74 1102 1246C1101.01 1246 1100.02 1246 1099 1246C1099 1246.66 1099 1247.32 1099 1248C1086.63 1251.96 1086.63 1251.96 1074 1256C1073.67 1295.27 1073.34 1334.54 1073 1375C1105.04 1374.88 1105.04 1374.88 1137.08 1374.73C1143.31 1374.72 1143.31 1374.72 1146.24 1374.71C1148.26 1374.71 1150.28 1374.7 1152.3 1374.68C1172.84 1374.54 1172.84 1374.54 1181.86 1377.18C1184 1378 1184 1378 1187.3 1379.76C1189.9 1381.81 1192.48 1383.85 1195 1386C1195.76 1386.63 1196.51 1387.26 1197.29 1387.91C1199.4 1389.84 1201.2 1391.77 1203 1394C1208.01 1402.91 1210.89 1413.03 1214.13 1422.69C1214.92 1425.03 1215.71 1427.37 1216.5 1429.71C1216.99 1431.15 1217.47 1432.6 1217.96 1434.04C1219.33 1438.11 1220.78 1442.14 1222.32 1446.14C1223.77 1450.12 1224.9 1454.05 1225.12 1458.28C1225.12 1460.19 1225.07 1462.09 1225 1464C1223.1 1467.38 1221.22 1470.71 1218.54 1473.54C1215.19 1476.42 1212.05 1477.98 1208 1480C1086.23 1480 964.46 1480 839 1480C834.592 1477.8 831.627 1476.09 828 1473C826.68 1470.36 825.36 1467.72 824 1465C823.66 1461.14 823.62 1457.85 824 1454C826.405 1442.73 830.707 1431.77 834.563 1420.94C834.926 1419.92 835.29 1418.89 835.664 1417.84C838.525 1409.96 841.649 1402.2 845.75 1394.88C849.171 1390.5 852.717 1386.55 857 1383C860.87 1380.66 864.82 1378.72 869 1377C869.845 1376.65 870.689 1376.3 871.559 1375.94C876.089 1374.7 880.279 1374.74 884.953 1374.77C886.456 1374.77 886.456 1374.77 887.989 1374.77C891.219 1374.77 894.449 1374.79 897.68 1374.8C899.679 1374.81 901.679 1374.81 903.678 1374.81C911.077 1374.82 918.476 1374.85 925.875 1374.88C942.416 1374.92 958.958 1374.96 976 1375C976 1335.73 976 1296.46 976 1256C973.36 1255.34 970.72 1254.68 968 1254C952.583 1249.3 938.181 1242.59 924 1235C923.342 1234.65 922.684 1234.3 922.006 1233.94C915.982 1230.7 910.716 1227.27 905.817 1222.48C905.217 1221.99 904.618 1221.5 904 1221C903.213 1220.7 902.425 1220.4 901.613 1220.1C899 1219 899 1219 896.414 1216.89C895.494 1216.02 894.573 1215.15 893.625 1214.25C892.565 1213.25 891.505 1212.25 890.445 1211.25C889.888 1210.72 889.33 1210.19 888.755 1209.65C886.958 1207.96 885.136 1206.3 883.305 1204.65C867.928 1190.71 854.809 1174.9 843.992 1157.14C838.28 1147.56 838.28 1147.56 836 1143C835.342 1142.91 834.685 1142.81 834.007 1142.71C813.725 1139.74 794.918 1135.65 775.959 1127.8C774.239 1127.1 772.505 1126.43 770.77 1125.76C756.65 1120.23 744.046 1112.1 732 1103C731.115 1102.33 731.115 1102.33 730.212 1101.65C726.451 1098.8 722.715 1095.91 719 1093C718.116 1092.32 717.232 1091.63 716.32 1090.93C714.279 1089.23 712.632 1087.59 710.938 1085.56C708.746 1082.99 706.52 1080.47 704.199 1078.01C697.597 1071.02 691.524 1063.9 686 1056C685.285 1054.99 684.569 1053.98 683.832 1052.95C673.748 1038.06 665.676 1020.92 660.303 1003.78C655.519 988.103 652.612 972.159 650 956C649.849 955.074 649.699 954.148 649.544 953.194C647.877 942.835 646.538 932.444 645.261 922.031C644.123 912.823 642.891 903.629 641.625 894.438C641.52 893.672 641.416 892.907 641.307 892.119C640.176 883.893 638.984 875.686 637.567 867.504C632.43 837.811 632.43 837.811 634 825C635.055 819.677 636.897 815.197 639.32 810.371C642.75 804.233 646.939 798.876 652 794C656.28 790.243 660.735 787.166 665.804 784.557C670.331 782.706 674.645 781.255 679.507 780.729C686.56 780.305 693.618 780.426 700.68 780.512C702.947 780.521 705.214 780.528 707.48 780.533C713.402 780.552 719.323 780.601 725.245 780.657C731.305 780.708 737.365 780.731 743.426 780.756C755.284 780.809 767.142 780.894 779 781C778.931 779.919 778.862 778.838 778.791 777.725C778.7 776.283 778.608 774.841 778.517 773.399C778.472 772.69 778.426 771.98 778.38 771.249C776.88 747.471 776.88 747.471 778.366 738.885C779.069 736.181 780.098 733.813 781.391 731.34C783.607 728.118 785.917 725.32 788.813 722.688C792.305 719.993 795.958 717.77 800 716C803.738 714.772 807.463 714.859 811.354 714.869Z" fill="url(#paint_linear_0)" fill-rule="nonzero" />
	<path id="3" d="M587.885 509.886C588.627 509.886 589.37 509.886 590.135 509.886C592.558 509.887 594.982 509.894 597.406 509.902C599.099 509.904 600.791 509.906 602.484 509.907C606.916 509.91 611.348 509.92 615.78 509.931C620.312 509.942 624.843 509.946 629.375 509.951C638.25 509.962 647.125 509.979 656 510C657.901 510.918 659.799 511.844 661.695 512.773C662.753 513.288 663.81 513.803 664.899 514.333C668.701 516.377 671.883 518.693 675.023 521.645C678.025 525.221 679.96 529.14 681.906 533.363C682.674 535.215 683.366 537.099 684 539C684.109 540.332 684.168 541.669 684.193 543.006C684.217 544.208 684.217 544.208 684.242 545.436C684.286 549.128 684.327 552.819 684.35 556.511C684.367 558.446 684.394 560.381 684.432 562.315C684.737 577.768 684.737 577.768 683.535 583.039C681.887 588.281 679.226 592.835 676.188 597.375C673.575 600.577 670.76 603.209 667.333 605.525C663.035 608.242 658.865 610.452 654 612C649.299 612.574 644.657 612.645 639.931 612.592C637.611 612.566 635.293 612.571 632.973 612.583C628.044 612.604 623.116 612.585 618.188 612.562C612.477 612.541 606.767 612.537 601.057 612.563C598.798 612.566 596.54 612.545 594.282 612.523C587.31 612.509 580.933 613.031 574.193 614.913C568.085 616.828 563.427 619.291 558.094 622.812C550.806 627.966 544.294 633.125 538.75 640.188C533.947 646.589 529.803 653.48 527 661C524.67 667.844 522.784 674.451 522.495 681.705C522.472 684.05 522.47 686.396 522.486 688.74C522.479 690.035 522.472 691.33 522.464 692.664C522.449 695.451 522.446 698.238 522.453 701.025C522.464 705.455 522.446 709.885 522.425 714.315C522.395 721.341 522.383 728.367 522.38 735.393C522.373 747.93 522.343 760.468 522.295 773.005C522.278 777.385 522.273 781.766 522.276 786.146C522.282 807.261 521.934 827.619 516 848C515.601 849.424 515.202 850.849 514.805 852.273C512.244 861.32 509.357 870.214 506 879C505.607 880.058 505.214 881.117 504.809 882.207C499.156 896.432 491.047 910.253 481.625 922.312C480.092 924.215 478.551 926.112 477 928C475.746 929.622 474.495 931.246 473.25 932.875C470.282 936.689 467.177 940.358 464 944C463.34 944 462.68 944 462 944C462 944.66 462 945.32 462 946C461.34 946 460.68 946 460 946C459.746 946.581 459.491 947.162 459.229 947.761C457.867 950.242 456.357 951.855 454.332 953.828C453.239 954.905 453.239 954.905 452.123 956.004C451.361 956.745 450.598 957.486 449.812 958.25C444.87 963.077 440.096 967.941 435.593 973.183C433.342 975.751 430.944 978.114 428.5 980.5C425.382 983.572 422.341 986.667 419.5 990C416.219 993.849 412.65 997.379 409.053 1000.93C405.77 1004.18 402.703 1007.56 399.703 1011.07C396.635 1014.54 393.312 1017.77 390 1021C390 1022.98 390 1024.96 390 1027C390.69 1027.69 391.381 1028.37 392.092 1029.08C394.687 1031.65 397.279 1034.23 399.869 1036.81C400.985 1037.92 402.101 1039.03 403.218 1040.14C413.696 1050.54 413.696 1050.54 417.496 1055C422.472 1060.83 428.05 1066.12 433.5 1071.5C446.004 1083.85 446.004 1083.85 451.39 1090.17C454.373 1093.56 457.646 1096.66 460.875 1099.81C467.05 1105.92 472.703 1112.11 478 1119C479.228 1120.54 479.228 1120.54 480.48 1122.11C489.565 1133.54 496.792 1145.77 503 1159C503.287 1159.61 503.575 1160.21 503.871 1160.84C512.775 1179.81 518.54 1199.25 521.538 1220C523.005 1231.75 522.632 1243.71 522.544 1255.53C522.522 1259.46 522.533 1263.39 522.541 1267.32C522.557 1277.26 522.531 1287.19 522.5 1297.12C522.467 1307.9 522.441 1318.67 522.464 1329.44C522.471 1333.32 522.468 1337.21 522.439 1341.1C522.027 1360.5 522.027 1360.5 525.311 1379.52C527.855 1387.73 531.374 1395.75 536 1403C540.384 1409.33 545.436 1414.99 551.391 1419.88C557.988 1424.98 564.953 1428.68 572.648 1431.84C577.604 1433.55 582.029 1434.88 587.273 1435.19C590.561 1435.26 593.845 1435.3 597.134 1435.3C599.347 1435.31 601.559 1435.33 603.772 1435.35C610.059 1435.4 616.346 1435.43 622.632 1435.46C626.493 1435.47 630.354 1435.5 634.214 1435.54C635.674 1435.55 637.134 1435.56 638.594 1435.56C645.098 1435.56 651.4 1435.57 657.704 1437.38C661.488 1438.64 664.785 1440.43 668.113 1442.62C671.453 1445.06 674.418 1447.24 676.949 1450.55C677.523 1451.46 678.096 1452.37 678.688 1453.31C679.269 1454.22 679.85 1455.12 680.449 1456.05C682.201 1459.38 683.129 1462.33 684 1466C684.279 1469.03 684.304 1472.04 684.301 1475.08C684.305 1475.94 684.309 1476.79 684.314 1477.67C684.319 1479.47 684.32 1481.27 684.316 1483.07C684.312 1485.79 684.336 1488.52 684.361 1491.24C684.415 1505.79 684.415 1505.79 682.648 1511.97C681.505 1515.05 680.177 1517.9 678.312 1520.62C677.875 1521.28 677.438 1521.93 676.988 1522.6C676.662 1523.06 676.336 1523.52 676 1524C675.34 1524 674.68 1524 674 1524C673.34 1525.32 672.68 1526.64 672 1528C670.35 1528.66 668.7 1529.32 667 1530C667 1530.66 667 1531.32 667 1532C662.801 1534.07 658.549 1535.86 654 1537C647.688 1537.88 641.275 1537.66 634.918 1537.59C633.092 1537.59 631.265 1537.59 629.439 1537.59C625.629 1537.59 621.819 1537.57 618.01 1537.54C613.172 1537.5 608.335 1537.5 603.497 1537.51C599.73 1537.51 595.963 1537.5 592.195 1537.48C590.414 1537.47 588.632 1537.47 586.851 1537.47C575.644 1537.46 564.885 1536.9 554 1534C551.63 1533.07 549.326 1532.04 547 1531C545.127 1530.51 543.242 1530.07 541.348 1529.67C534.589 1528.05 528.648 1525.32 522.438 1522.25C521.391 1521.75 520.345 1521.25 519.268 1520.73C505.813 1514.19 493.292 1505.92 482.188 1495.88C480.106 1493.94 478.051 1491.97 476 1490C475.418 1489.44 474.835 1488.89 474.235 1488.32C466.637 1481.04 459.8 1473.83 454 1465C454 1464.34 454 1463.68 454 1463C453.34 1463 452.68 1463 452 1463C449.928 1459.57 447.869 1456.13 445.812 1452.69C444.945 1451.25 444.945 1451.25 444.061 1449.79C440.235 1443.37 436.941 1436.87 434 1430C434 1429.01 434 1428.02 434 1427C433.34 1427 432.68 1427 432 1427C428.158 1415.94 425.135 1404.83 422.688 1393.38C422.433 1392.19 422.179 1391.01 421.917 1389.79C419.664 1378.96 418.852 1368.68 418.842 1357.64C418.834 1355.62 418.827 1353.61 418.819 1351.59C418.811 1349.44 418.806 1347.29 418.801 1345.14C418.79 1340.63 418.77 1336.12 418.748 1331.61C418.686 1318.8 418.632 1305.98 418.599 1293.17C418.58 1286.08 418.551 1278.99 418.511 1271.9C418.49 1268.16 418.474 1264.42 418.472 1260.68C418.47 1257.16 418.453 1253.63 418.427 1250.11C418.417 1248.23 418.421 1246.34 418.426 1244.46C418.333 1234.76 416.934 1225.55 414.18 1216.23C413.463 1214.07 412.669 1211.98 411.812 1209.88C411.511 1209.12 411.209 1208.37 410.898 1207.59C405.863 1195.44 398.154 1185.21 390 1175C390 1174.34 390 1173.68 390 1173C388.68 1172.34 387.36 1171.68 386 1171C385.422 1170.24 384.845 1169.47 384.25 1168.69C382.283 1166.34 380.515 1164.71 378 1163C378 1162.34 378 1161.68 378 1161C377.34 1161 376.68 1161 376 1161C375.611 1160.54 375.223 1160.08 374.823 1159.61C369.795 1153.75 364.418 1148.31 358.938 1142.88C357.977 1141.92 357.018 1140.96 356.058 1140.01C353.042 1137 350.021 1134 347 1131C343.493 1127.52 339.988 1124.03 336.488 1120.54C335.101 1119.16 333.712 1117.79 332.322 1116.41C327.89 1112 323.621 1107.52 319.547 1102.77C317.304 1100.2 314.924 1097.81 312.504 1095.41C312.026 1094.93 311.547 1094.45 311.054 1093.96C309.559 1092.47 308.061 1090.99 306.562 1089.5C305.534 1088.48 304.506 1087.45 303.479 1086.43C300.988 1083.95 298.495 1081.47 296 1079C296 1078.34 296 1077.68 296 1077C295.34 1077 294.68 1077 294 1077C294 1076.34 294 1075.68 294 1075C293.34 1075 292.68 1075 292 1075C291.587 1074.53 291.175 1074.05 290.75 1073.57C290.172 1072.91 289.595 1072.24 289 1071.56C288.359 1070.82 287.719 1070.08 287.059 1069.32C285.756 1067.85 284.419 1066.42 283.035 1065.03C279.14 1061.02 276.25 1056.94 273.689 1052C270.912 1046.45 268.314 1041.11 267 1035C266.68 1031.27 266.62 1027.56 266.625 1023.81C266.624 1022.79 266.622 1021.78 266.621 1020.73C266.683 1016.33 266.8 1012.11 267.898 1007.83C268.808 1005.13 269.766 1002.56 271 1000C271.66 1000 272.32 1000 273 1000C273.33 998.35 273.66 996.7 274 995C278.493 988.45 283.152 982.591 288.879 977.082C291.799 974.216 294.389 971.147 297 968C297.66 968 298.32 968 299 968C299 967.34 299 966.68 299 966C299.66 966 300.32 966 301 966C301.66 964.68 302.32 963.36 303 962C303.66 962 304.32 962 305 962C305.66 960.68 306.32 959.36 307 958C307.66 958 308.32 958 309 958C309.233 957.438 309.467 956.876 309.707 956.297C311.319 953.433 313.319 951.527 315.688 949.25C318.646 946.355 321.525 943.482 324.188 940.312C328.312 935.479 332.873 931.075 337.407 926.63C340.554 923.526 343.583 920.382 346.469 917.031C350.731 912.088 355.382 907.568 360.039 903C363.974 899.111 367.684 895.116 371.294 890.924C374.009 887.862 376.943 885.039 379.875 882.188C385.689 876.438 391.067 870.537 396 864C396.782 862.973 397.565 861.945 398.371 860.887C402.259 855.628 405.459 850.438 407.812 844.312C408.546 842.21 409.276 840.106 410 838C410.679 836.371 411.366 834.746 412.062 833.125C412.719 831.421 413.363 829.712 414 828C414.345 827.11 414.691 826.22 415.047 825.303C417.492 817.811 418.268 810.716 418.454 802.839C418.525 796.682 418.53 790.527 418.509 784.37C418.501 780.615 418.518 776.859 418.532 773.104C418.563 764.376 418.565 755.647 418.563 746.919C418.561 735.839 418.572 724.76 418.611 713.681C418.624 709.964 418.63 706.247 418.62 702.53C418.514 661.944 418.514 661.944 424.244 643.019C424.514 642.208 424.784 641.398 425.062 640.562C425.358 639.638 425.653 638.714 425.957 637.762C431.231 621.74 437.382 605.93 447 592C447.854 590.698 448.705 589.394 449.555 588.09C455.35 579.297 461.607 571.521 469 564C469.567 563.414 470.134 562.828 470.718 562.225C477.113 555.618 483.366 549.191 491 544C491.66 544 492.32 544 493 544C493 543.34 493 542.68 493 542C496.648 539.637 500.318 537.31 504 535C505.371 534.138 505.371 534.138 506.77 533.258C520.731 524.784 535.728 518.726 551.51 514.598C558.263 512.977 565.118 511.901 572 511C573.204 510.831 574.407 510.663 575.647 510.489C579.73 509.982 583.774 509.865 587.885 509.886Z" fill="rgb(57,67,73)" fill-rule="nonzero" />
	<path id="4" d="M1403.52 509.709C1404.23 509.703 1404.93 509.696 1405.66 509.689C1407.97 509.67 1410.28 509.666 1412.6 509.664C1414.24 509.658 1415.87 509.651 1417.51 509.644C1420.94 509.632 1424.38 509.628 1427.81 509.629C1431.29 509.63 1434.76 509.616 1438.23 509.588C1460.08 509.418 1480.88 509.763 1502.04 515.93C1503.91 516.559 1505.77 517.206 1507.63 517.875C1508.62 518.222 1509.62 518.568 1510.65 518.925C1517.99 521.522 1525.08 524.399 1532 528C1533.4 528.721 1533.4 528.721 1534.83 529.457C1546.23 535.501 1556.44 542.679 1566.46 550.76C1567.89 551.912 1569.33 553.052 1570.77 554.191C1573 556.002 1575.01 557.932 1577 560C1577 560.66 1577 561.32 1577 562C1577.66 562 1578.32 562 1579 562C1580.42 563.729 1581.83 565.458 1583.25 567.188C1584.43 568.632 1584.43 568.632 1585.64 570.105C1587.78 572.725 1589.89 575.357 1592 578C1592 578.66 1592 579.32 1592 580C1592.66 580 1593.32 580 1594 580C1595.65 582.578 1597.3 585.161 1598.94 587.75C1600.28 589.863 1601.63 591.967 1603 594.062C1607.95 601.802 1611.73 609.662 1615.22 618.141C1615.92 619.813 1616.66 621.469 1617.41 623.121C1623.45 636.704 1626.54 652.208 1628.53 666.893C1629.19 673.026 1629.16 679.152 1629.17 685.316C1629.18 687.324 1629.19 689.333 1629.2 691.342C1629.21 693.485 1629.22 695.628 1629.23 697.771C1629.25 702.258 1629.27 706.744 1629.29 711.23C1629.37 723.981 1629.43 736.732 1629.48 749.484C1629.51 756.539 1629.54 763.594 1629.58 770.648C1629.61 775.097 1629.63 779.545 1629.64 783.993C1629.65 787.428 1629.68 790.862 1629.7 794.296C1629.7 796.118 1629.7 796.118 1629.7 797.976C1629.78 806.967 1630.69 815.651 1633.15 824.32C1636.83 835.745 1640.62 846.753 1647 857C1657.9 872.595 1671.62 885.742 1685.1 899.067C1689.95 903.872 1694.69 908.7 1699.12 913.897C1703.51 918.812 1708.31 923.37 1713 928C1724.72 939.572 1724.72 939.572 1728.38 943.887C1731.57 947.622 1735.01 951.066 1738.49 954.52C1739.09 955.109 1739.68 955.698 1740.29 956.305C1742.77 958.756 1745.26 961.204 1747.74 963.647C1758.73 974.454 1769.09 985.423 1776.66 998.98C1780.77 1006.82 1780.77 1006.82 1781.65 1011.36C1782.44 1019.53 1782.74 1027.68 1781.35 1035.8C1779.85 1041.59 1777.78 1046.86 1774.94 1052.12C1771.44 1057.77 1767.2 1062.5 1762.61 1067.27C1760.55 1069.42 1758.6 1071.6 1756.69 1073.88C1752.78 1078.4 1748.5 1082.55 1744.24 1086.73C1741.29 1089.63 1738.47 1092.57 1735.79 1095.71C1732.01 1100.05 1728 1104.11 1723.91 1108.16C1723.16 1108.9 1722.41 1109.65 1721.63 1110.42C1718.46 1113.58 1715.28 1116.73 1712.1 1119.88C1709.76 1122.2 1707.43 1124.52 1705.09 1126.84C1704.39 1127.54 1703.68 1128.24 1702.95 1128.96C1699.03 1132.86 1695.34 1136.87 1691.73 1141.05C1688.85 1144.29 1685.76 1147.3 1682.67 1150.32C1681.28 1151.7 1679.89 1153.07 1678.5 1154.44C1676.35 1156.56 1674.2 1158.68 1672.04 1160.79C1661.58 1171.03 1651.52 1181.32 1644.17 1194.12C1643.85 1194.72 1643.52 1195.32 1643.19 1195.94C1642.82 1196.61 1642.45 1197.28 1642.07 1197.97C1636.92 1207.63 1633.69 1217.81 1631.36 1228.48C1629 1240.68 1629.47 1253.13 1629.52 1265.5C1629.54 1269.18 1629.52 1272.85 1629.51 1276.53C1629.48 1286.64 1629.49 1296.75 1629.5 1306.86C1629.51 1316.12 1629.51 1325.38 1629.48 1334.64C1629.47 1338.28 1629.47 1341.91 1629.49 1345.54C1629.58 1366.63 1628.72 1387.64 1622.89 1408.05C1622.18 1410.15 1621.45 1412.24 1620.69 1414.31C1620.1 1415.99 1620.1 1415.99 1619.5 1417.7C1616.6 1425.83 1613.25 1433.47 1609 1441C1608.5 1441.96 1608 1442.93 1607.48 1443.92C1604.13 1450.33 1600.25 1456.16 1596 1462C1595.39 1462.87 1594.79 1463.75 1594.16 1464.65C1589.43 1471.39 1584.19 1477.49 1578.5 1483.43C1577.49 1484.49 1576.48 1485.55 1575.48 1486.62C1567.86 1494.71 1559.82 1501.49 1550.69 1507.82C1549.18 1508.88 1547.69 1509.97 1546.21 1511.06C1540.48 1515.28 1534.57 1518.29 1528 1521C1527.01 1521 1526.02 1521 1525 1521C1525 1521.66 1525 1522.32 1525 1523C1509.31 1529.86 1492.89 1534.49 1475.91 1536.63C1463.15 1537.84 1450.27 1537.59 1437.47 1537.52C1433.04 1537.5 1428.6 1537.51 1424.17 1537.54C1420.71 1537.55 1417.24 1537.55 1413.78 1537.54C1412.14 1537.53 1410.51 1537.54 1408.87 1537.55C1396.47 1537.6 1396.47 1537.6 1390.65 1536.18C1386.08 1534.59 1382.23 1532.64 1378.25 1529.88C1374.33 1526.59 1371.35 1522.89 1368.41 1518.72C1366.98 1515.96 1366.14 1513.31 1365.42 1510.3C1364.68 1506.25 1364.7 1502.23 1364.7 1498.13C1364.69 1496.75 1364.69 1496.75 1364.69 1495.34C1364.68 1493.4 1364.68 1491.46 1364.68 1489.52C1364.69 1486.57 1364.66 1483.63 1364.64 1480.69C1364.64 1478.79 1364.64 1476.9 1364.64 1475C1364.63 1474.13 1364.62 1473.27 1364.61 1472.37C1364.63 1468.94 1364.8 1465.81 1365.64 1462.47C1366.7 1459.2 1367.8 1456.33 1369.54 1453.36C1372.94 1449.13 1376.36 1445.41 1380.81 1442.28C1385.59 1439.48 1390.77 1437.74 1396 1436C1398.11 1435.91 1400.22 1435.87 1402.33 1435.87C1403.64 1435.87 1404.95 1435.87 1406.3 1435.86C1407 1435.86 1407.7 1435.86 1408.42 1435.86C1411.39 1435.86 1414.36 1435.84 1417.33 1435.82C1422.86 1435.78 1428.38 1435.75 1433.91 1435.75C1437.75 1435.75 1441.6 1435.73 1445.45 1435.69C1446.9 1435.68 1448.35 1435.68 1449.81 1435.68C1456.96 1435.72 1463.61 1435.34 1470.5 1433.32C1479.71 1430.41 1487.83 1426.47 1495.86 1421.08C1501.37 1416.94 1505.72 1412.25 1509.81 1406.75C1514.47 1400.24 1518.25 1393.54 1521 1386C1522.19 1382.03 1523.17 1378.06 1524 1374C1524.17 1373.24 1524.35 1372.47 1524.53 1371.68C1525.02 1368.87 1525.13 1366.26 1525.14 1363.41C1525.15 1362.29 1525.16 1361.18 1525.17 1360.03C1525.17 1358.82 1525.17 1357.61 1525.17 1356.36C1525.18 1354.38 1525.19 1352.41 1525.2 1350.44C1525.21 1348.32 1525.22 1346.2 1525.23 1344.08C1525.25 1339.64 1525.27 1335.21 1525.29 1330.77C1525.37 1318.15 1525.43 1305.53 1525.48 1292.91C1525.51 1285.94 1525.54 1278.97 1525.58 1272C1525.61 1268.32 1525.62 1264.64 1525.63 1260.96C1525.69 1239.76 1526.26 1219.24 1531.31 1198.56C1531.6 1197.33 1531.88 1196.1 1532.17 1194.83C1534.13 1186.58 1536.8 1178.84 1540 1171C1540.38 1170.01 1540.77 1169.02 1541.17 1168C1547.73 1151.13 1557.05 1136.32 1568 1122C1568.7 1121.06 1569.39 1120.12 1570.11 1119.14C1574.69 1113.14 1579.95 1107.9 1585.34 1102.64C1585.93 1102.07 1586.52 1101.5 1587.12 1100.91C1587.65 1100.39 1588.18 1099.88 1588.73 1099.35C1590.12 1098.01 1590.12 1098.01 1591 1096C1591.66 1096 1592.32 1096 1593 1096C1593 1095.34 1593 1094.68 1593 1094C1593.66 1094 1594.32 1094 1595 1094C1595 1093.34 1595 1092.68 1595 1092C1595.66 1092 1596.32 1092 1597 1092C1597.21 1091.46 1597.42 1090.93 1597.63 1090.38C1599.54 1087.06 1602.2 1084.63 1604.94 1082C1609.81 1077.3 1609.81 1077.3 1614 1072C1614.66 1072 1615.32 1072 1616 1072C1616.66 1070.68 1617.32 1069.36 1618 1068C1618.66 1068 1619.32 1068 1620 1068C1620 1067.34 1620 1066.68 1620 1066C1620.66 1065.34 1621.32 1064.68 1622 1064C1622.46 1063.54 1622.91 1063.08 1623.38 1062.61C1624.54 1061.46 1625.7 1060.31 1626.87 1059.17C1630.86 1055.23 1634.62 1051.19 1638.28 1046.95C1641.04 1043.82 1644.02 1040.92 1647 1038C1647.83 1037.17 1648.65 1036.35 1649.5 1035.5C1652.67 1032.33 1655.83 1029.17 1659 1026C1658.67 1024.35 1658.34 1022.7 1658 1021C1653.6 1015.76 1648.92 1010.88 1644.05 1006.07C1640.83 1002.88 1637.84 999.572 1634.9 996.125C1630.81 991.554 1626.37 987.301 1622 983C1622 982.34 1622 981.68 1622 981C1620.68 980.34 1619.36 979.68 1618 979C1618 978.34 1618 977.68 1618 977C1616.68 976.34 1615.36 975.68 1614 975C1614 974.34 1614 973.68 1614 973C1613.34 973 1612.68 973 1612 973C1611.6 972.525 1611.2 972.049 1610.78 971.56C1606.14 966.163 1601.21 961.163 1596.13 956.188C1590.29 950.421 1584.74 944.667 1579.73 938.164C1577.95 935.941 1576.05 933.973 1574 932C1574 931.34 1574 930.68 1574 930C1573.34 930 1572.68 930 1572 930C1571.46 929.178 1570.92 928.355 1570.36 927.508C1568.23 924.299 1565.99 921.17 1563.74 918.039C1553.66 903.965 1544.92 889.285 1539.15 872.898C1535.89 863.206 1533.18 853.351 1530.69 843.438C1530.45 842.507 1530.2 841.576 1529.95 840.617C1525.4 821.715 1525.71 802.121 1525.73 782.805C1525.73 778.339 1525.71 773.873 1525.7 769.406C1525.65 756.724 1525.63 744.042 1525.62 731.36C1525.62 724.315 1525.6 717.271 1525.56 710.227C1525.54 705.8 1525.54 701.374 1525.55 696.948C1525.56 693.538 1525.53 690.129 1525.51 686.719C1525.52 685.517 1525.53 684.316 1525.54 683.078C1525.48 677.001 1524.84 671.725 1523.07 665.891C1520.35 657.792 1516.93 650.15 1511.98 643.141C1510.05 640.701 1508.04 638.347 1506 636C1505.52 635.366 1505.04 634.732 1504.55 634.078C1502.43 631.323 1500.33 629.238 1497.5 627.191C1494.71 625.387 1491.87 623.681 1489 622C1488.27 621.535 1487.54 621.069 1486.78 620.59C1481.47 617.351 1475.97 615.498 1469.99 613.84C1463.89 612.416 1457.72 612.465 1451.49 612.514C1449.17 612.532 1446.85 612.524 1444.52 612.51C1439.6 612.485 1434.67 612.49 1429.75 612.5C1424.02 612.512 1418.29 612.51 1412.56 612.476C1410.29 612.469 1408.02 612.485 1405.75 612.503C1400.66 612.501 1395.77 612.498 1390.84 611.114C1388.48 610.18 1386.24 609.183 1384 608C1383.34 607.67 1382.68 607.34 1382 607C1382 606.34 1382 605.68 1382 605C1381.46 604.773 1380.93 604.546 1380.38 604.312C1377.92 602.954 1375.66 601.508 1373.52 599.68C1371.09 596.997 1369.64 593.935 1368.08 590.695C1366.51 586.765 1365.18 583.009 1364.8 578.784C1364.7 576.275 1364.67 573.773 1364.66 571.262C1364.66 570.341 1364.65 569.42 1364.64 568.471C1364.63 566.531 1364.63 564.59 1364.63 562.65C1364.63 559.707 1364.59 556.765 1364.55 553.822C1364.55 551.927 1364.54 550.032 1364.54 548.137C1364.52 547.27 1364.51 546.403 1364.5 545.509C1364.52 541.875 1364.77 538.737 1365.85 535.249C1367.3 531.544 1368.77 528.344 1371.01 525.047C1375.4 520.278 1379.75 516.449 1385.35 513.156C1391.33 510.548 1397.04 509.749 1403.52 509.709Z" fill="rgb(56,66,73)" fill-rule="nonzero" />
	<path id="6" d="M1138.56 866.625C1144.76 866.658 1150.75 866.719 1156.75 868.438C1159.74 869.66 1162.07 871.053 1164.69 872.953C1169.48 877.039 1173.77 881.609 1177.53 886.66C1180.53 891.443 1182.22 896.675 1184 902C1184.67 916.026 1184.67 916.026 1183.37 922.375C1181.5 927.331 1179.02 931.645 1176 936C1173.11 939.309 1169.99 942.345 1166.81 945.375C1165.21 946.922 1163.61 948.472 1162.02 950.023C1160.97 951.028 1160.97 951.028 1159.9 952.052C1158.07 953.931 1156.52 955.867 1155 958C1154.34 958 1153.68 958 1153 958C1152.01 959.98 1152.01 959.98 1151 962C1150.34 962 1149.68 962 1149 962C1148.76 962.567 1148.52 963.134 1148.27 963.718C1146.75 966.456 1144.93 968.3 1142.71 970.506C1141.82 971.39 1140.93 972.275 1140.01 973.186C1139.04 974.144 1138.07 975.101 1137.1 976.059C1136.1 977.049 1135.11 978.041 1134.11 979.032C1131.49 981.64 1128.86 984.243 1126.24 986.844C1122.03 991.001 1117.84 995.166 1113.65 999.333C1112.19 1000.78 1110.73 1002.23 1109.26 1003.68C1108.37 1004.56 1107.47 1005.45 1106.55 1006.36C1105.77 1007.14 1104.98 1007.92 1104.18 1008.72C1101.96 1011.04 1099.99 1013.48 1098 1016C1096.36 1017.69 1094.69 1019.35 1093 1021C1092.13 1021.86 1091.26 1022.73 1090.37 1023.62C1089.45 1024.53 1088.53 1025.44 1087.59 1026.38C1086.04 1027.91 1084.5 1029.45 1082.96 1030.98C1081.9 1032.04 1080.84 1033.09 1079.78 1034.15C1078.23 1035.68 1076.69 1037.22 1075.15 1038.75C1074.23 1039.66 1073.32 1040.58 1072.37 1041.51C1070.39 1043.59 1068.65 1045.65 1067 1048C1066.34 1048 1065.68 1048 1065 1048C1065 1048.66 1065 1049.32 1065 1050C1063.33 1051.67 1061.67 1053.33 1060 1055C1059.15 1055.89 1058.31 1056.77 1057.44 1057.69C1055 1060 1055 1060 1052.69 1061.31C1052.13 1061.54 1051.57 1061.77 1051 1062C1051 1062.66 1051 1063.32 1051 1064C1050.34 1064 1049.68 1064 1049 1064C1048.79 1064.54 1048.59 1065.07 1048.37 1065.62C1046.42 1069 1043.82 1071.3 1041 1074C1040.34 1074 1039.68 1074 1039 1074C1038.76 1074.56 1038.53 1075.12 1038.29 1075.7C1036.12 1079.59 1032.9 1082.42 1029.74 1085.52C1026.1 1088.81 1022.29 1091.62 1018 1094C1015 1095 1015 1095 1011.21 1095.1C1009.74 1095.09 1008.28 1095.08 1006.81 1095.06C1006.06 1095.06 1005.31 1095.05 1004.54 1095.05C1002.69 1095.04 1000.85 1095.02 999 1095C995.249 1093.4 992.004 1091.81 988.825 1089.24C982.224 1083.24 975.885 1077.01 969.6 1070.68C967.756 1068.82 965.908 1066.96 964.06 1065.11C960.141 1061.18 956.227 1057.25 952.312 1053.31C947.76 1048.74 943.207 1044.16 938.649 1039.59C936.84 1037.78 935.033 1035.96 933.227 1034.14C927.986 1028.88 922.729 1023.74 917 1019C915.754 1017.68 914.537 1016.33 913.375 1014.94C911.411 1012.63 909.462 1010.46 907.312 1008.31C904.896 1005.9 902.888 1003.86 901 1001C899.261 997.08 897.973 993.177 897 989C896.403 983.224 896.766 977.599 897.687 971.875C898.717 967.46 900.256 963.501 902.402 959.508C906.041 953.796 910.549 949.135 915.641 944.699C919.133 941.97 922.558 939.639 926.617 937.84C931.875 936.162 937.061 935.745 942.562 935.562C946.105 935.652 949.368 935.861 952.828 936.621C956.42 937.892 959.38 939.574 962.516 941.73C968.495 946.325 973.771 951.583 979 957C979.866 957.866 980.732 958.733 981.625 959.625C982.409 960.409 983.192 961.193 984 962C984.531 962.52 985.062 963.039 985.609 963.574C989.334 967.241 992.812 971.041 996.223 975C999.011 978.138 1001.99 981.074 1005 984C1006.32 983.67 1007.64 983.34 1009 983C1012.28 980.441 1015.15 977.919 1017.81 974.719C1024.26 967.261 1031.46 960.484 1038.47 953.554C1048.58 943.605 1048.58 943.605 1058 933C1058.66 933 1059.32 933 1060 933C1060 932.34 1060 931.68 1060 931C1060.66 931 1061.32 931 1062 931C1062.22 930.45 1062.45 929.901 1062.68 929.334C1064.4 926.299 1066.71 924.06 1069.19 921.648C1069.95 920.898 1069.95 920.898 1070.72 920.133C1072.33 918.542 1073.95 916.958 1075.56 915.375C1077.18 913.784 1078.8 912.191 1080.41 910.596C1081.42 909.605 1082.42 908.616 1083.43 907.631C1084.64 906.44 1085.82 905.222 1087 904C1087.33 903.34 1087.66 902.68 1088 902C1088.66 902 1089.32 902 1090 902C1090 901.34 1090 900.68 1090 900C1090.66 900 1091.32 900 1092 900C1092 899.34 1092 898.68 1092 898C1092.66 898 1093.32 898 1094 898C1094 897.34 1094 896.68 1094 896C1094.66 896 1095.32 896 1096 896C1096.37 895.134 1096.37 895.134 1096.75 894.25C1098 892 1098 892 1100.12 889.75C1101.05 888.884 1101.05 888.884 1102 888C1102.66 888 1103.32 888 1104 888C1104.23 887.442 1104.47 886.884 1104.71 886.309C1106.91 882.384 1110.2 879.536 1113.4 876.41C1117.04 873.036 1120.65 870.267 1125.04 867.898C1129.52 866.538 1133.9 866.615 1138.56 866.625Z" fill="rgb(252,254,253)" fill-rule="nonzero" />
	<path id="8" d="M724 869C744.79 869 765.58 869 787 869C789.332 886.822 791.413 904.605 793.062 922.5C794.14 934.166 795.244 945.806 796.783 957.422C798.458 970.195 799.798 983.01 801.199 995.816C803.03 1013.58 803.03 1013.58 805.551 1031.25C806.029 1034.17 806.099 1036.92 806.062 1039.88C806.053 1040.84 806.044 1041.81 806.035 1042.8C806.024 1043.53 806.012 1044.25 806 1045C802.922 1044.71 802.922 1044.71 799 1044C795.578 1042.44 795.578 1042.44 792.25 1040.56C791.141 1039.95 790.033 1039.33 788.891 1038.69C786.891 1037.52 784.928 1036.29 783 1035C783 1034.34 783 1033.68 783 1033C781.68 1032.67 780.36 1032.34 779 1032C779 1031.34 779 1030.68 779 1030C777.68 1029.67 776.36 1029.34 775 1029C767.272 1022.24 759.974 1015.43 754 1007C751.839 1003.41 749.855 999.76 748 996C748 995.01 748 994.02 748 993C747.34 993 746.68 993 746 993C745.212 991.153 744.446 989.297 743.688 987.438C743.258 986.405 742.829 985.372 742.387 984.309C738.399 973.087 737.248 960.6 735.59 948.863C735.375 947.366 735.16 945.87 734.944 944.373C734.384 940.477 733.829 936.58 733.275 932.684C732.386 926.44 731.491 920.198 730.595 913.955C730.286 911.802 729.98 909.648 729.674 907.495C728.679 900.514 727.625 893.55 726.412 886.603C725.868 883.164 725.534 879.722 725.246 876.254C724.98 873.815 724.481 871.406 724 869Z" fill="rgb(252,254,252)" fill-rule="nonzero" />
	<path id="9" d="M1261 869C1281.79 869 1302.58 869 1324 869C1320.6 895.093 1320.6 895.093 1318.56 906.75C1316.88 916.612 1315.28 926.479 1313.81 936.375C1313.65 937.501 1313.48 938.627 1313.31 939.787C1312.45 945.642 1311.7 951.492 1311.06 957.375C1309.67 968.585 1307.67 980.18 1303.11 990.578C1301.25 994.497 1299.18 998.252 1297 1002C1296.53 1002.82 1296.06 1003.64 1295.57 1004.49C1290.29 1013 1283.4 1021.22 1275.89 1027.84C1267.27 1034.99 1257.43 1039.74 1247.22 1044.22C1246.49 1044.48 1245.75 1044.73 1245 1045C1244.01 1045 1243.02 1045 1242 1045C1242.12 1042.67 1242.24 1040.33 1242.38 1038C1242.44 1036.7 1242.51 1035.4 1242.59 1034.06C1242.92 1029.27 1243.54 1024.53 1244.15 1019.76C1244.89 1013.99 1245.55 1008.22 1246.18 1002.44C1246.29 1001.51 1246.39 1000.58 1246.49 999.624C1246.91 995.802 1247.33 991.98 1247.75 988.158C1248.9 977.561 1250.12 966.976 1251.47 956.402C1253.24 942.481 1254.65 928.524 1256.06 914.562C1256.45 910.761 1256.84 906.96 1257.22 903.16C1257.46 900.824 1257.7 898.489 1257.94 896.153C1258.86 887.087 1259.93 878.055 1261 869Z" fill="rgb(251,254,252)" fill-rule="nonzero" />
	<path id="10" d="M420 667C420.33 667 420.66 667 421 667C421 669.31 421 671.62 421 674C421.66 674 422.32 674 423 674C424.154 679.506 424.144 684.86 424.133 690.457C424.134 691.493 424.135 692.53 424.137 693.597C424.139 697.002 424.132 700.407 424.125 703.812C424.124 705.554 424.124 705.554 424.122 707.33C424.1 732.228 423.625 757.111 423 782C422.34 781.67 421.68 781.34 421 781C420.67 789.25 420.34 797.5 420 806C419.67 806 419.34 806 419 806C418.977 789.058 418.959 772.116 418.948 755.174C418.943 747.307 418.936 739.44 418.925 731.573C418.915 724.714 418.908 717.855 418.906 710.996C418.905 707.366 418.902 703.736 418.894 700.107C418.886 696.049 418.886 691.991 418.887 687.934C418.883 686.737 418.879 685.541 418.876 684.309C418.883 678.441 419.104 672.802 420 667Z" fill="rgb(90,97,100)" fill-rule="nonzero" />
	<path id="11" d="M1074 1255C1075.98 1255.49 1075.98 1255.49 1078 1256C1077.34 1256 1076.68 1256 1076 1256C1076 1256.66 1076 1257.32 1076 1258C1075.34 1258 1074.68 1258 1074 1258C1074 1296.28 1074 1334.56 1074 1374C1105.02 1374 1136.04 1374 1168 1374C1168 1374.33 1168 1374.66 1168 1375C1136.65 1375 1105.3 1375 1073 1375C1073 1335.73 1073 1296.46 1073 1256C1073.33 1255.67 1073.66 1255.34 1074 1255Z" fill="rgb(185,233,222)" fill-rule="nonzero" />
	<path id="12" d="M1364 542C1364.33 542 1364.66 542 1365 542C1365.01 543.124 1365.03 544.248 1365.04 545.406C1365.1 549.623 1365.18 553.841 1365.26 558.058C1365.3 559.875 1365.32 561.691 1365.35 563.508C1365.41 575.753 1365.41 575.753 1367.54 587.762C1368.02 589.16 1368.5 590.559 1369 592C1366.03 592 1363.06 592 1360 592C1360 591.34 1360 590.68 1360 590C1359.34 590 1358.68 590 1358 590C1358 589.34 1358 588.68 1358 588C1358.66 588 1359.32 588 1360 588C1360 586.02 1360 584.04 1360 582C1360.99 581.34 1361.98 580.68 1363 580C1363.33 567.46 1363.66 554.92 1364 542Z" fill="rgb(225,226,228)" fill-rule="nonzero" />
	<path id="13" d="M1365 1468C1365.66 1468 1366.32 1468 1367 1468C1367.03 1469.07 1367.05 1470.15 1367.08 1471.25C1367.17 1475.27 1367.27 1479.29 1367.37 1483.31C1367.42 1485.05 1367.46 1486.78 1367.5 1488.51C1367.56 1491.02 1367.62 1493.52 1367.68 1496.03C1367.7 1496.79 1367.72 1497.55 1367.73 1498.34C1367.88 1503.61 1368.36 1508.77 1369 1514C1368.34 1514 1367.68 1514 1367 1514C1366.01 1511.58 1366.01 1511.58 1365 1508C1364.73 1504.89 1364.77 1501.79 1364.8 1498.66C1364.81 1497.78 1364.81 1496.91 1364.81 1496C1364.82 1493.21 1364.85 1490.42 1364.88 1487.62C1364.89 1485.73 1364.89 1483.83 1364.9 1481.93C1364.92 1477.28 1364.96 1472.64 1365 1468Z" fill="rgb(23,27,33)" fill-rule="nonzero" />
	<path id="14" d="M802 1012C802.33 1012 802.66 1012 803 1012C803.133 1013.09 803.266 1014.17 803.402 1015.29C803.581 1016.73 803.759 1018.18 803.938 1019.62C804.025 1020.34 804.112 1021.05 804.201 1021.79C804.59 1024.93 805.007 1028.04 805.562 1031.16C806.017 1034.11 806.099 1036.89 806.062 1039.88C806.053 1040.84 806.044 1041.81 806.035 1042.8C806.024 1043.53 806.012 1044.25 806 1045C803.566 1044.8 801.369 1044.55 799 1044C796.241 1042.82 793.617 1041.46 791 1040C792.32 1039.67 793.64 1039.34 795 1039C796.32 1039.33 797.64 1039.66 799 1040C799 1040.66 799 1041.32 799 1042C800.98 1042.33 802.96 1042.66 805 1043C805 1040.69 805 1038.38 805 1036C803.68 1036 802.36 1036 801 1036C800.67 1034.02 800.34 1032.04 800 1030C800.66 1028.02 801.32 1026.04 802 1024C801.34 1024 800.68 1024 800 1024C800 1023.34 800 1022.68 800 1022C800.66 1022 801.32 1022 802 1022C802 1018.7 802 1015.4 802 1012Z" fill="rgb(208,241,233)" fill-rule="nonzero" />
	<path id="15" d="M658 1537C657.01 1537.66 656.02 1538.32 655 1539C630.91 1538.67 606.82 1538.34 582 1538C582 1537.67 582 1537.34 582 1537C591.318 1536.85 600.637 1536.7 609.956 1536.56C614.283 1536.49 618.61 1536.42 622.937 1536.35C627.112 1536.28 631.288 1536.22 635.463 1536.16C637.057 1536.13 638.65 1536.11 640.243 1536.08C642.474 1536.04 644.705 1536.01 646.937 1535.98C648.207 1535.96 649.477 1535.94 650.786 1535.92C653.425 1535.99 655.505 1536.2 658 1537Z" fill="rgb(213,217,216)" fill-rule="nonzero" />
</svg>
